<svg class="icon" viewBox="0 0 1024 1024" version="1.1" xmlns="http://www.w3.org/2000/svg">
  <defs>
    <style type="text/css"></style>
  </defs>
  <path
    d="M928 752c0 8.96-7.04 16-16 16H896v16c0 8.96-7.04 16-16 16s-16-7.04-16-16V768h-16c-8.96 0-16-7.04-16-16s7.04-16 16-16h16v-16c0-8.96 7.04-16 16-16s16 7.04 16 16v16h16c8.96 0 16 7.04 16 16z"
    fill="#31CFFF" p-id="1073"></path>
  <path
    d="M256 784c0 8.96-7.04 16-16 16H192v48c0 8.96-7.04 16-16 16s-16-7.04-16-16V800H112c-8.96 0-16-7.04-16-16s7.04-16 16-16H160v-48c0-8.96 7.04-16 16-16s16 7.04 16 16V768h48c8.96 0 16 7.04 16 16zM960 176c0 8.96-7.04 16-16 16H896v48c0 8.96-7.04 16-16 16s-16-7.04-16-16V192h-48c-8.96 0-16-7.04-16-16s7.04-16 16-16H864V112c0-8.96 7.04-16 16-16s16 7.04 16 16V160h48c8.96 0 16 7.04 16 16z"
    fill="#5FFFBA" p-id="1074"></path>
  <path
    d="M224 176c0 8.96-7.04 16-16 16H192v16c0 8.96-7.04 16-16 16S160 216.96 160 208V192h-16c-8.96 0-16-7.04-16-16s7.04-16 16-16H160v-16c0-8.96 7.04-16 16-16s16 7.04 16 16V160h16c8.96 0 16 7.04 16 16z"
    fill="#31CFFF" p-id="1075"></path>
  <path
    d="M734.72 343.36c-0.64-7.68-1.92-15.36-3.52-22.72V320a239.584 239.584 0 0 0-114.56-160c-4.48-2.88-9.248-5.12-14.048-7.36a225.216 225.216 0 0 0-55.04-19.52c-6.4-1.6-12.8-2.56-19.232-3.52h-0.32a240 240 0 0 0-208 237.76c0 43.84 11.52 84.8 32 120 20.8 36.16 61.12 96.32 96 147.2v-189.44c-5.12 1.6-10.24 2.88-16 2.88-26.56 0-48-21.44-48-48s21.44-48 48-48 48 21.44 48 48V672h32v-272c0-26.56 21.44-48 48-48 21.76 0 40 14.4 45.76 34.24 19.84 5.76 34.24 24 34.24 45.76 0 26.56-21.44 48-48 48-5.76 0-10.88-0.96-16-2.88V672h6.08c24.32-34.88 56-81.28 82.88-122.24 3.2-4.48 6.048-8.96 8.64-13.44 12.16-18.56 22.72-35.52 30.4-48.96 20.48-35.2 32-76.16 32-120 0-8.32-0.32-16-1.28-24z"
    fill="#FFD561" p-id="1076"></path>
  <path d="M704.96 192H659.2a232 232 0 0 1 63.072 96h34.208a268.16 268.16 0 0 0-51.52-96z" fill="#2D2220"
        p-id="1077"></path>
  <path
    d="M576 704v32h-96v-32h96zM480 768h96v32h-96zM480 832h96v30.4c0 22.72-24.32 44.48-48 56.32-23.68-11.84-48-33.6-48-56.32V832z"
    fill="#BCBCBC" p-id="1078"></path>
  <path
    d="M896 720c0 8.96-7.04 16-16 16H864v16c0 8.96-7.04 16-16 16s-16-7.04-16-16V736h-16c-8.96 0-16-7.04-16-16s7.04-16 16-16h16v-16c0-8.96 7.04-16 16-16s16 7.04 16 16v16h16c8.96 0 16 7.04 16 16zM224 752c0 8.96-7.04 16-16 16H160v48c0 8.96-7.04 16-16 16s-16-7.04-16-16V768H80c-8.96 0-16-7.04-16-16s7.04-16 16-16H128v-48c0-8.96 7.04-16 16-16s16 7.04 16 16V736h48c8.96 0 16 7.04 16 16zM928 144c0 8.96-7.04 16-16 16H864v48c0 8.96-7.04 16-16 16s-16-7.04-16-16V160h-48c-8.96 0-16-7.04-16-16s7.04-16 16-16H832V80c0-8.96 7.04-16 16-16s16 7.04 16 16V128h48c8.96 0 16 7.04 16 16zM192 144c0 8.96-7.04 16-16 16H160v16c0 8.96-7.04 16-16 16S128 184.96 128 176V160h-16c-8.96 0-16-7.04-16-16s7.04-16 16-16H128v-16c0-8.96 7.04-16 16-16s16 7.04 16 16V128h16c8.96 0 16 7.04 16 16zM731.84 501.76c23.04-40 36.16-86.4 36.16-135.68 0-15.68-1.28-31.04-3.84-46.08h-32.96c3.2 15.36 4.8 31.04 4.8 47.36 0 43.84-11.52 84.8-32 120-26.24 45.44-83.52 129.28-121.92 184.64H544v-226.88c5.12 1.6 10.24 2.88 16 2.88 26.56 0 48-21.44 48-48s-21.44-48-48-48-48 21.44-48 48V672h-32v-272c0-26.56-21.44-48-48-48s-48 21.44-48 48 21.44 48 48 48c5.76 0 10.88-1.28 16-2.88V672h-38.08c-38.4-55.36-95.68-139.2-121.92-184.64-20.48-35.2-32-76.16-32-120 0-132.48 107.52-240 240-240 43.84 0 84.8 11.84 120 32.64h57.28a269.952 269.952 0 0 0-177.28-65.92c-150.08 0-272 121.92-272 272 0 49.28 13.12 95.68 36.16 135.68 26.88 46.08 81.28 128.64 123.84 191.68V736h-16c-8.96 0-16 7.04-16 16s7.04 16 16 16h16v32h-16c-8.96 0-16 7.04-16 16s7.04 16 16 16h16v30.4C384 912 457.28 960 496 960s112-48 112-97.6V832h16c8.96 0 16-7.04 16-16s-7.04-16-16-16H608v-32h16c8.96 0 16-7.04 16-16s-7.04-16-16-16H608v-42.56c42.56-63.04 96.96-145.6 123.84-191.68z m-171.84-118.08a16 16 0 0 1 15.68 16c0 8.96-7.072 16-15.68 16s-15.68-7.04-15.68-16c0-8.64 7.04-16 15.68-16z m-128 32.32a16 16 0 0 1-15.68-16c0-8.96 7.04-16 15.68-16s15.68 7.04 15.68 16a16 16 0 0 1-15.68 16zM576 862.4c0 22.72-24.32 44.48-48 56.32-11.52 5.76-23.04 9.28-32 9.28-26.56 0-80-32-80-65.6V832h160v30.4zM576 800h-160v-32h160v32z m0-64h-160v-32h160v32z"
    fill="#2D2220" p-id="1079"></path>
</svg>
