<?xml version="1.0" encoding="utf-8"?>
<!-- Generator: Adobe Illustrator 22.0.0, SVG Export Plug-In . SVG Version: 6.00 Build 0)  -->
<svg version="1.1" id="图层_1" xmlns="http://www.w3.org/2000/svg"  x="0px" y="0px"
	 viewBox="0 0 350 251" style="enable-background:new 0 0 350 251;" xml:space="preserve">
<style type="text/css">
	.st0{fill:#EFEFEF;}
	.st1{fill:#B2D8F7;}
	.st2{fill:#FFFFFF;}
	.st3{fill:#DCDEE4;}
</style>
<rect x="0" class="st0" width="350" height="251"/>
<g>
	<path class="st1" d="M89.3,77.1v97.1c0,9,1.8,10.8,10.5,10.8H219c8.6,0,10.5-1.7,10.5-10.8V77.1c0-8.8-1.6-10.8-10.5-10.8H99.8
		C91.2,66.3,89.3,67.9,89.3,77.1z"/>
	<path class="st2" d="M213.1,159.7H105.9c11.7-17.5,32.6-46.7,37.9-46.7c5.1,0,22.5,23.5,30.4,31.9c0,0,10.1-13.8,15.4-13.8
		C194.9,131.1,212.9,159.6,213.1,159.7z M181.6,98.6c0-7.3,5.8-13.2,12.9-13.2s12.9,5.9,12.9,13.2c0,7.3-5.8,13.2-12.9,13.2
		C187.4,112,181.6,106.1,181.6,98.6z"/>
	<path class="st3" d="M155.1,59.8l-20.5-4c-6.8-1.3-9.5-0.8-11.1,4H155.1z M251.7,78.6l-16-3.1v98.9c0,4.5-0.3,9.6-3.8,13.1
		c-3.4,3.4-8.3,3.7-12.6,3.7h-9.7l20.6,4c8.5,1.7,10.6,0.4,12.3-8.6l17.6-95.4C261.7,82.5,260.4,80.3,251.7,78.6z"/>
</g>
</svg>
