<?xml version="1.0" standalone="no"?><!DOCTYPE svg PUBLIC "-//W3C//DTD SVG 1.1//EN"
  "http://www.w3.org/Graphics/SVG/1.1/DTD/svg11.dtd">
<svg t="1530082887426" class="icon" style="" viewBox="0 0 1024 1024" version="1.1" xmlns="http://www.w3.org/2000/svg"
     p-id="9499"
     width="200" height="200">
  <defs>
    <style type="text/css"></style>
  </defs>
  <path d="M512 0c282.76736 0 512 229.23264 512 512s-229.23264 512-512 512S0 794.76736 0 512 229.23264 0 512 0z"
        fill="#F16363" p-id="9500"></path>
  <path
    d="M512 819.2a40.96 40.96 0 1 1 0-81.92 40.96 40.96 0 0 1 0 81.92z m20.48-174.08c0 16.96768-12.32896 20.992-20.48 20.48-9.96352-0.62464-20.48-3.51232-20.48-20.48l-10.24-348.16c0-16.96768-5.96992-50.75968 30.72-51.2 27.84256-0.33792 31.82592 17.69472 30.72 51.2l-10.24 348.16z"
    fill="#FFFFFF" p-id="9501"></path>
</svg>
