<?xml version="1.0" standalone="no"?><!DOCTYPE svg PUBLIC "-//W3C//DTD SVG 1.1//EN"
  "http://www.w3.org/Graphics/SVG/1.1/DTD/svg11.dtd">
<svg t="1530778764972" class="icon" style="" viewBox="0 0 1024 1024" version="1.1" xmlns="http://www.w3.org/2000/svg"
     p-id="5392"
     width="200" height="200">
  <defs>
    <style type="text/css"></style>
  </defs>
  <path d="M21.333333 0v1024" fill="" p-id="5393"></path>
  <path d="M42.666667 0v1024" fill="" p-id="5394"></path>
  <path d="M64 0v1024" fill="" p-id="5395"></path>
  <path d="M85.333333 0v1024" fill="" p-id="5396"></path>
  <path d="M106.666667 0v1024" fill="" p-id="5397"></path>
  <path d="M128 0v1024" fill="" p-id="5398"></path>
  <path d="M149.333333 0v1024" fill="" p-id="5399"></path>
  <path d="M170.666667 0v1024" fill="" p-id="5400"></path>
  <path d="M192 0v1024" fill="" p-id="5401"></path>
  <path d="M213.333333 0v1024" fill="" p-id="5402"></path>
  <path d="M234.666667 0v1024" fill="" p-id="5403"></path>
  <path d="M256 0v1024" fill="" p-id="5404"></path>
  <path d="M277.333333 0v1024" fill="" p-id="5405"></path>
  <path d="M298.666667 0v1024" fill="" p-id="5406"></path>
  <path d="M320 0v1024" fill="" p-id="5407"></path>
  <path d="M341.333333 0v1024" fill="" p-id="5408"></path>
  <path d="M362.666667 0v1024" fill="" p-id="5409"></path>
  <path d="M384 0v1024" fill="" p-id="5410"></path>
  <path d="M405.333333 0v1024" fill="" p-id="5411"></path>
  <path d="M426.666667 0v1024" fill="" p-id="5412"></path>
  <path d="M448 0v1024" fill="" p-id="5413"></path>
  <path d="M469.333333 0v1024" fill="" p-id="5414"></path>
  <path d="M490.666667 0v1024" fill="" p-id="5415"></path>
  <path d="M512 0v1024" fill="" p-id="5416"></path>
  <path d="M533.333333 0v1024" fill="" p-id="5417"></path>
  <path d="M554.666667 0v1024" fill="" p-id="5418"></path>
  <path d="M576 0v1024" fill="" p-id="5419"></path>
  <path d="M597.333333 0v1024" fill="" p-id="5420"></path>
  <path d="M618.666667 0v1024" fill="" p-id="5421"></path>
  <path d="M640 0v1024" fill="" p-id="5422"></path>
  <path d="M661.333333 0v1024" fill="" p-id="5423"></path>
  <path d="M682.666667 0v1024" fill="" p-id="5424"></path>
  <path d="M704 0v1024" fill="" p-id="5425"></path>
  <path d="M725.333333 0v1024" fill="" p-id="5426"></path>
  <path d="M746.666667 0v1024" fill="" p-id="5427"></path>
  <path d="M768 0v1024" fill="" p-id="5428"></path>
  <path d="M789.333333 0v1024" fill="" p-id="5429"></path>
  <path d="M810.666667 0v1024" fill="" p-id="5430"></path>
  <path d="M832 0v1024" fill="" p-id="5431"></path>
  <path d="M853.333333 0v1024" fill="" p-id="5432"></path>
  <path d="M874.666667 0v1024" fill="" p-id="5433"></path>
  <path d="M896 0v1024" fill="" p-id="5434"></path>
  <path d="M917.333333 0v1024" fill="" p-id="5435"></path>
  <path d="M938.666667 0v1024" fill="" p-id="5436"></path>
  <path d="M960 0v1024" fill="" p-id="5437"></path>
  <path d="M981.333333 0v1024" fill="" p-id="5438"></path>
  <path d="M1002.666667 0v1024M0 21.333333h1024" fill="" p-id="5439"></path>
  <path d="M0 42.666667h1024" fill="" p-id="5440"></path>
  <path d="M0 64h1024" fill="" p-id="5441"></path>
  <path d="M0 85.333333h1024" fill="" p-id="5442"></path>
  <path d="M0 106.666667h1024" fill="" p-id="5443"></path>
  <path d="M0 128h1024" fill="" p-id="5444"></path>
  <path d="M0 149.333333h1024" fill="" p-id="5445"></path>
  <path d="M0 170.666667h1024" fill="" p-id="5446"></path>
  <path d="M0 192h1024" fill="" p-id="5447"></path>
  <path d="M0 213.333333h1024" fill="" p-id="5448"></path>
  <path d="M0 234.666667h1024" fill="" p-id="5449"></path>
  <path d="M0 256h1024" fill="" p-id="5450"></path>
  <path d="M0 277.333333h1024" fill="" p-id="5451"></path>
  <path d="M0 298.666667h1024" fill="" p-id="5452"></path>
  <path d="M0 320h1024" fill="" p-id="5453"></path>
  <path d="M0 341.333333h1024" fill="" p-id="5454"></path>
  <path d="M0 362.666667h1024" fill="" p-id="5455"></path>
  <path d="M0 384h1024" fill="" p-id="5456"></path>
  <path d="M0 405.333333h1024" fill="" p-id="5457"></path>
  <path d="M0 426.666667h1024" fill="" p-id="5458"></path>
  <path d="M0 448h1024" fill="" p-id="5459"></path>
  <path d="M0 469.333333h1024" fill="" p-id="5460"></path>
  <path d="M0 490.666667h1024" fill="" p-id="5461"></path>
  <path d="M0 512h1024" fill="" p-id="5462"></path>
  <path d="M0 533.333333h1024" fill="" p-id="5463"></path>
  <path d="M0 554.666667h1024" fill="" p-id="5464"></path>
  <path d="M0 576h1024" fill="" p-id="5465"></path>
  <path d="M0 597.333333h1024" fill="" p-id="5466"></path>
  <path d="M0 618.666667h1024" fill="" p-id="5467"></path>
  <path d="M0 640h1024" fill="" p-id="5468"></path>
  <path d="M0 661.333333h1024" fill="" p-id="5469"></path>
  <path d="M0 682.666667h1024" fill="" p-id="5470"></path>
  <path d="M0 704h1024" fill="" p-id="5471"></path>
  <path d="M0 725.333333h1024" fill="" p-id="5472"></path>
  <path d="M0 746.666667h1024" fill="" p-id="5473"></path>
  <path d="M0 768h1024" fill="" p-id="5474"></path>
  <path d="M0 789.333333h1024" fill="" p-id="5475"></path>
  <path d="M0 810.666667h1024" fill="" p-id="5476"></path>
  <path d="M0 832h1024" fill="" p-id="5477"></path>
  <path d="M0 853.333333h1024" fill="" p-id="5478"></path>
  <path d="M0 874.666667h1024" fill="" p-id="5479"></path>
  <path d="M0 896h1024" fill="" p-id="5480"></path>
  <path d="M0 917.333333h1024" fill="" p-id="5481"></path>
  <path d="M0 938.666667h1024" fill="" p-id="5482"></path>
  <path d="M0 960h1024" fill="" p-id="5483"></path>
  <path d="M0 981.333333h1024" fill="" p-id="5484"></path>
  <path d="M0 1002.666667h1024" fill="" p-id="5485"></path>
  <path d="M810 274L572 512l238 238-60 60L512 572 274 810l-60-60L452 512 214 274l60-60L512 452l238-238z" fill=""
        p-id="5486"></path>
</svg>
