<?xml version="1.0" standalone="no"?><!DOCTYPE svg PUBLIC "-//W3C//DTD SVG 1.1//EN"
  "http://www.w3.org/Graphics/SVG/1.1/DTD/svg11.dtd">
<svg t="1530081843333" class="icon" style="" viewBox="0 0 1024 1024" version="1.1" xmlns="http://www.w3.org/2000/svg"
     p-id="8750"
     width="200" height="200">
  <defs>
    <style type="text/css"></style>
  </defs>
  <path d="M512 0C228.430769 0 0 228.430769 0 512S228.430769 1024 512 1024 1024 795.569231 1024 512 795.569231 0 512 0z"
        fill="#FAE4E2"
        p-id="8751"></path>
  <path
    d="M779.815385 275.692308c-15.753846-63.015385-47.261538-118.153846-78.769231-165.415385 47.261538 23.630769 86.646154 47.261538 126.030769 86.646154 23.630769 23.630769 39.384615 47.261538 63.015385 78.769231H779.815385z m173.292307 204.8h-133.907692c0-47.261538-7.876923-94.523077-15.753846-133.907693h118.153846c15.753846 39.384615 31.507692 86.646154 31.507692 133.907693z m-31.507692 204.8h-118.153846c7.876923-39.384615 15.753846-86.646154 15.753846-133.907693h133.907692c0 39.384615-15.753846 86.646154-31.507692 133.907693z m-94.523077 141.784615c-39.384615 39.384615-78.769231 63.015385-126.030769 86.646154 31.507692-47.261538 63.015385-102.4 78.769231-165.415385h102.4c-15.753846 31.507692-31.507692 55.138462-55.138462 78.769231z m-236.307692 102.4l-47.261539 23.630769V756.184615H708.923077c-7.876923 31.507692-23.630769 63.015385-39.384615 86.646154-23.630769 31.507692-47.261538 63.015385-78.769231 86.646154z m-47.261539-385.969231h204.8c0 47.261538-7.876923 94.523077-15.753846 133.907693H543.507692V543.507692z m0-204.8h189.046154c7.876923 47.261538 15.753846 86.646154 15.753846 133.907693H543.507692V338.707692z m0-267.815384l47.261539 23.630769c31.507692 23.630769 55.138462 47.261538 78.769231 86.646154 15.753846 31.507692 31.507692 63.015385 39.384615 94.523077H543.507692V70.892308z m-63.015384 204.8H315.076923c7.876923-31.507692 23.630769-63.015385 39.384615-86.646154 23.630769-39.384615 47.261538-70.892308 78.769231-86.646154 15.753846-15.753846 31.507692-23.630769 47.261539-31.507692v204.8z m0 204.8H275.692308c0-47.261538 7.876923-94.523077 15.753846-133.907693h189.046154v133.907693z m0 204.8H291.446154c-7.876923-47.261538-15.753846-94.523077-15.753846-141.784616h204.8v141.784616z m0 267.815384l-47.261539-23.630769c-31.507692-23.630769-55.138462-47.261538-78.769231-86.646154-15.753846-31.507692-31.507692-63.015385-39.384615-94.523077h165.415385v204.8z m-283.569231-126.030769c-23.630769-23.630769-39.384615-47.261538-55.138462-78.769231H236.307692c23.630769 63.015385 47.261538 118.153846 78.769231 165.415385-39.384615-23.630769-78.769231-55.138462-118.153846-86.646154zM70.892308 543.507692h133.907692c0 47.261538 7.876923 94.523077 15.753846 133.907693H102.4C86.646154 638.030769 70.892308 590.769231 70.892308 543.507692z m31.507692-204.8h118.153846c-7.876923 47.261538-15.753846 94.523077-15.753846 141.784616H70.892308c0-47.261538 15.753846-94.523077 31.507692-141.784616z m94.523077-141.784615c39.384615-39.384615 78.769231-63.015385 126.030769-86.646154-31.507692 47.261538-63.015385 102.4-86.646154 165.415385H141.784615c15.753846-31.507692 31.507692-55.138462 55.138462-78.769231z m315.076923-196.923077C228.430769 0 0 228.430769 0 512S228.430769 1024 512 1024 1024 795.569231 1024 512 795.569231 0 512 0z"
    fill="#F95146" p-id="8752"></path>
</svg>
