<?xml version="1.0" encoding="utf-8"?>
<!-- Generator: Adobe Illustrator 22.0.0, SVG Export Plug-In . SVG Version: 6.00 Build 0)  -->
<svg version="1.1" id="图层_1" xmlns="http://www.w3.org/2000/svg"  x="0px" y="0px"
	 viewBox="0 0 350 251" style="enable-background:new 0 0 350 251;" xml:space="preserve">
<style type="text/css">
	.st0{fill:#EFEFEF;}
	.st1{fill:#D3D3D3;}
	.st2{fill:#CCCCCC;}
</style>
<path class="st0" d="M340,251.1H10c-5.5,0-10-4.5-10-10v-231c0-5.5,4.5-10,10-10h330c5.5,0,10,4.5,10,10v231
	C350,246.6,345.5,251.1,340,251.1z"/>
<g>
	<path class="st1" d="M180.5,124.1c1.3-1.5,1.3-4-0.2-5.4l-19.9-21.1l-6.3-6.3c-0.4,0.2-0.4,0.4-0.8,0.8l-41.2,50V63.2
		c0.4-2.3,2.1-3.8,4.2-3.8h56.5L182,49h-71.1c-5.2,0-9.2,4.2-9.2,9.4v100.4c0,5,4,9.2,9.2,9.2h31.6L180.5,124.1L180.5,124.1z
		 M194.1,82.7c0,8.8,7.1,15.7,15.7,15.7c8.6,0,15.7-7.1,15.7-15.7S218.4,67,209.8,67C201.2,67,194.1,74.1,194.1,82.7z"/>
	<path class="st1" d="M238.7,49h-30.5c-0.2,0.4-0.4,0.8-0.6,1l-8.2,9.4H233c2.3,0,4,1.7,4.2,4l0.2,78.2l-32.6-34.7
		c-1-1.3-2.5-1.9-4.2-1.9s-2.7,0.8-4.2,1.7L195,108l9.6,10.2c1.5,1.5,1.5,3.8,0.2,5.4L166.5,168h72.6c5,0,9.2-4,9.2-9.2V58.4
		C247.9,53,243.9,49,238.7,49z"/>
</g>
<g>
	<path class="st2" d="M95.5,186.1h1.7v3h3.6c0,6-0.1,9.8-0.3,11.2c-0.2,1.4-1.1,2-2.6,2c-0.2,0-0.7,0-1.4-0.1l-0.4-1.5
		c0.7,0.1,1.2,0.1,1.5,0.1c0.7,0,1.2-0.4,1.3-1.2c0.1-0.8,0.2-3.7,0.2-8.8h-1.9v0.5c-0.1,5.2-1.2,9-3.4,11.4l-1.4-1.2
		c2-2.1,3.1-5.5,3.1-10.2v-0.5h-2.7v-1.7h2.7V186.1z M108.2,188v14.1h-1.7V201h-2.7v1.1h-1.7V188H108.2z M103.8,199.4h2.7v-9.7h-2.7
		V199.4z"/>
	<path class="st2" d="M111.6,187.3h3.3V186h1.6v1.4h3.1v1.5h-3.1v1.3h3.9c-0.1-1.3-0.1-2.7-0.1-4.2h1.6c0,1.5,0,2.9,0.1,4.2h4.3v1.5
		h-4.2c0.1,1.5,0.2,2.7,0.4,3.6l0.2,0.9c0.5-1.2,0.9-2.5,1.3-3.9l1.5,0.7c-0.5,2.2-1.3,4-2.1,5.5c0.1,0.3,0.2,0.5,0.4,0.8
		c0.4,0.8,0.8,1.2,1,1.2c0.2,0,0.4-0.9,0.6-2.6l1.4,0.8c-0.4,2.4-1,3.6-1.8,3.6c-0.6,0-1.3-0.5-2.1-1.6c-0.2-0.2-0.3-0.5-0.4-0.7
		c-0.9,1.1-1.9,1.9-3,2.5l-0.9-1.3c1.2-0.7,2.3-1.7,3.2-3c-0.3-0.8-0.5-1.7-0.7-2.5c-0.3-1.2-0.4-2.5-0.6-4h-9.9v-1.5h4.2v-1.3h-3.3
		V187.3z M119.6,200l-2.6,0.3v2h-1.7v-1.8c-1.2,0.1-2.5,0.2-3.8,0.3l-0.2-1.6c1.4-0.1,2.7-0.2,4-0.3v-1.3h-3.3l-0.3-1.4
		c0.4-0.5,0.8-1.1,1.2-1.9h-1.7V193h2.4l0.4-1.2l1.6,0.3c-0.1,0.2-0.2,0.5-0.3,0.9h4.4v1.5h-5.1c-0.3,0.6-0.6,1.2-1,1.8h1.7v-1.2
		h1.7v1.2h2.5v1.4H117v1.1c1.1-0.1,2-0.2,2.6-0.3V200z M123.8,186.1c0.9,1,1.6,1.9,2.1,2.6l-1.3,0.9c-0.5-0.8-1.2-1.7-2.1-2.7
		L123.8,186.1z"/>
	<path class="st2" d="M133.2,187c-0.3,0.8-0.5,1.4-0.8,2h3.1v-3h1.7v3h5.8v1.7h-5.8v0.9c0,0.8-0.1,1.5-0.2,2.2h7.2v1.6h-6.4
		c0.9,2.3,3,4.2,6.6,5.5l-0.9,1.5c-3.7-1.6-6-3.7-7-6.4c-0.3,1-0.8,1.8-1.3,2.6c-1.2,1.6-3.2,2.9-6,3.8l-0.9-1.4
		c2.8-0.9,4.7-2.1,5.7-3.5c0.4-0.6,0.7-1.3,1-2h-6.3v-1.6h6.7c0.1-0.8,0.2-1.5,0.2-2.2v-0.9h-3.9c-0.6,1-1.3,1.8-2,2.5l-1.4-1.2
		c1.6-1.4,2.8-3.2,3.5-5.5L133.2,187z"/>
	<path class="st2" d="M149.2,189.3h1.5v5.5c0,2.1-0.4,3.7-1,5c-0.6,1.1-1.6,2-2.9,2.7l-0.9-1.5c1.2-0.6,2.1-1.4,2.5-2.3
		c0.4-1,0.7-2.3,0.7-3.9V189.3z M153.4,186.6v11.3h-1.5v-9.8H148v9.8h-1.5v-11.3H153.4z M151.4,198.3c0.9,0.9,1.7,1.9,2.5,2.8
		l-1.2,1.2c-0.6-0.9-1.3-1.9-2.3-3L151.4,198.3z M154.4,194.4l-1-1.3c1.3-1.7,2.1-4.1,2.4-7.1l1.7,0.2c-0.1,0.9-0.3,1.7-0.5,2.5h5
		v1.6h-1c-0.1,3-0.7,5.5-1.8,7.6c0.9,1.1,1.9,2.1,3.2,2.9l-0.9,1.6c-1.3-0.9-2.4-1.9-3.2-3c-0.9,1.2-2,2.2-3.2,3l-0.9-1.5
		c1.3-0.8,2.4-1.8,3.2-3c-0.8-1.4-1.4-3.1-1.8-4.9C155.1,193.6,154.7,194.1,154.4,194.4z M159.4,190.3h-2.8l-0.2,0.5
		c0.2,2.1,0.8,4,1.7,5.6C158.9,194.6,159.3,192.6,159.4,190.3z"/>
	<path class="st2" d="M167.8,200.1c0,1.7-0.8,3-2.3,3.8l-0.6-0.9c1-0.6,1.6-1.5,1.7-2.4c-0.1,0-0.2,0-0.3,0c-0.4,0-0.7-0.1-0.9-0.4
		c-0.2-0.2-0.4-0.5-0.4-0.9c0-0.4,0.1-0.7,0.4-0.9c0.2-0.2,0.6-0.3,0.9-0.3C167.3,198.1,167.8,198.8,167.8,200.1z"/>
	<path class="st2" d="M185.1,198.5c-0.6,1.5-1.4,2.8-2.3,3.9l-1.4-1c0.9-1,1.6-2.2,2.2-3.6L185.1,198.5z M188.5,186.1h1.7v1.6h6.8
		v1.6h-6.8v1.9h5.7v6h-12.1v-6h4.8V186.1z M194.1,195.6v-2.9h-8.8v2.9H194.1z M187.9,198.3c0.4,1.1,0.7,2.4,1,3.7l-1.7,0.4
		c-0.2-1.4-0.5-2.7-0.8-3.8L187.9,198.3z M191.6,198.1c0.5,1.2,0.9,2.5,1.4,3.9l-1.7,0.4c-0.3-1.5-0.8-2.8-1.3-4L191.6,198.1z
		 M195.1,197.7c1.1,1.4,2,2.7,2.6,3.8l-1.4,1c-0.7-1.2-1.5-2.5-2.5-3.9L195.1,197.7z"/>
	<path class="st2" d="M200.9,188.5h5.7v-2.4h1.7v2.4h5.6v1.6h-5.6v2.6h7v1.6h-7v5.8h3.8v-4.5h1.6v6.8H212v-0.7h-9.3v0.7h-1.6v-6.8
		h1.6v4.5h3.8v-5.8h-7v-1.6h7v-2.6h-5.7V188.5z"/>
	<path class="st2" d="M218.9,191.2h5.4v-0.9h-6.8v-1.4h6.8v-1c-1.3,0.1-3.1,0.1-5.4,0.2l-0.3-1.4c4.6-0.1,8.7-0.4,12.3-0.7l0.5,1.4
		c-2,0.2-3.8,0.3-5.4,0.4v1.1h6.8v1.4H226v0.9h5.5v6.1H226v0.9h6.2v1.3H226v1h7.1v1.4h-15.8v-1.4h7v-1h-6.1v-1.3h6.1v-0.9h-5.4
		V191.2z M220.5,193.6h3.8v-1.1h-3.8V193.6z M224.3,196v-1.1h-3.8v1.1H224.3z M226,192.5v1.1h3.8v-1.1H226z M229.8,196v-1.1H226v1.1
		H229.8z"/>
	<path class="st2" d="M234.7,191.3h4v7.3c0.5-0.5,0.9-0.9,1.3-1.4l0.4,1.8c-1,1.1-2.1,2-3.2,2.8l-0.6-1.5c0.3-0.3,0.4-0.6,0.4-0.9
		v-6.6h-2.4V191.3z M237.1,186.2c1.1,0.9,2,1.8,2.8,2.6l-1.2,1.2c-0.7-0.8-1.6-1.7-2.8-2.6L237.1,186.2z M247.4,200.9
		c-0.6-1.1-1-2.6-1.2-4.4c-0.2-1.6-0.4-3.5-0.4-5.7h-5.5v-1.6h5.5c0-0.7,0-1.7,0-3.1h1.6c0,1.4,0,2.5,0,3.1h3.4v1.6h-3.4
		c0.1,2.6,0.2,4.8,0.5,6.5c0.4,2,0.8,3.1,1.2,3.2c0.3,0,0.6-1.1,0.9-3.1l1.3,1.1c-0.6,2.6-1.4,3.9-2.2,3.9
		C248.5,202.3,247.9,201.8,247.4,200.9z M242.2,194.7h-1.5v-1.6h4.7v1.6h-1.5v4.4c0.7-0.2,1.4-0.3,2.1-0.5v1.6
		c-1.6,0.4-3.3,0.8-5,1.1l-0.4-1.6c0.7-0.1,1.2-0.2,1.6-0.2V194.7z M248.8,185.9c0.7,0.7,1.2,1.4,1.7,2.2l-1.2,0.8
		c-0.4-0.6-1-1.4-1.7-2.2L248.8,185.9z"/>
	<path class="st2" d="M257.2,198.4c0.2,0.2,0.4,0.5,0.4,0.9c0,0.4-0.1,0.7-0.4,0.9c-0.3,0.2-0.6,0.4-0.9,0.4s-0.7-0.1-0.9-0.4
		c-0.3-0.2-0.4-0.6-0.4-0.9c0-0.4,0.1-0.7,0.4-0.9c0.2-0.2,0.5-0.4,0.9-0.4C256.6,198,257,198.2,257.2,198.4z M255.2,187.9h2.2
		L257,197h-1.4L255.2,187.9z"/>
</g>
</svg>
