<?xml version="1.0" standalone="no"?><!DOCTYPE svg PUBLIC "-//W3C//DTD SVG 1.1//EN"
  "http://www.w3.org/Graphics/SVG/1.1/DTD/svg11.dtd">
<svg t="1530080620949" class="icon" style="" viewBox="0 0 1024 1024" version="1.1" xmlns="http://www.w3.org/2000/svg"
     p-id="1182"
     width="200" height="200">
  <defs>
    <style type="text/css"></style>
  </defs>
  <path d="M512 512m-512 0a512 512 0 1 0 1024 0 512 512 0 1 0-1024 0Z" fill="#3390FE" p-id="1183"></path>
  <path
    d="M507.547826 734.608696c24.486957 0 46.747826-20.034783 46.747826-44.521739h-91.269565c-2.226087 24.486957 17.808696 44.521739 44.521739 44.521739z m146.921739-133.565218v-122.434782c0-69.008696-48.973913-124.66087-113.530435-140.243479v-15.582608c0-8.904348-4.452174-17.808696-11.130434-24.486957s-15.582609-8.904348-24.486957-8.904348c-20.034783 0-33.391304 15.582609-33.391304 33.391305v15.582608c-66.782609 15.582609-113.530435 73.46087-113.530435 140.243479v122.434782l-46.747826 44.521739v22.26087h389.565217v-22.26087l-46.747826-44.521739z"
    fill="#FFFFFF" p-id="1184"></path>
</svg>
